<svg xmlns="http://www.w3.org/2000/svg" version="1.1" viewBox="0 0 100 100" preserveAspectRatio="none" class="css-1aadux1"><polyline points=" 0,12.465252359865488 0.6666666666666666,10.791156044784273 1.3333333333333333,12.0420427166911 2,22.96052658978614 2.6666666666666665,16.05448293121961 3.333333333333333,5.724803613328376 4,9.463318325205748 4.666666666666666,8.496543010349683 5.333333333333333,6.2670932313476015 6,6.185585972827425 6.666666666666666,21.896389512731417 7.333333333333333,52.83579195542076 8,41.65999106691716 8.666666666666666,58.39378666801354 9.333333333333332,100 10,83.34324172117839 10.666666666666666,87.94623491376097 11.333333333333332,70.43729327701577 12,75.92243490217025 12.666666666666666,82.90281557332517 13.333333333333332,89.87463855567592 14,79.7237741887445 14.666666666666666,50.630937110707094 15.333333333333332,49.9475430182565 16,39.98262001071616 16.666666666666664,27.220988500340397 17.333333333333332,45.00240579963065 18,42.70127488708852 18.666666666666664,41.66832791533586 19.333333333333332,56.51743909731689 20,51.883203970787996 20.666666666666664,53.15915098563949 21.333333333333332,50.369450664213495 22,47.19491763936722 22.666666666666664,44.18183323686618 23.333333333333332,41.8426494467206 24,41.86356724595225 24.666666666666664,36.45530015035444 25.333333333333332,36.9217936341228 26,37.40092228782975 26.666666666666664,26.17068564742641 27.333333333333332,33.8026106512919 28,34.653936382926815 28.666666666666664,38.03480667613914 29.333333333333332,46.12912456638135 30,41.997426374135394 30.666666666666664,35.90199877012542 31.333333333333332,39.25154684323785 32,34.905734339983255 32.666666666666664,35.81108556993574 33.33333333333333,38.20310988392103 34,37.81523748536709 34.666666666666664,33.31440590901576 35.33333333333333,29.83387904695715 36,29.22206714141369 36.666666666666664,25.7063521584637 37.33333333333333,23.367257070428025 38,24.717410326009414 38.666666666666664,25.766018465183464 39.33333333333333,29.71474577846962 40,29.128326496157385 40.666666666666664,25.056649683066595 41.33333333333333,29.707755022045887 42,36.91009952509498 42.666666666666664,34.432548432299996 43.33333333333333,38.64854339701659 44,36.50761765032774 44.666666666666664,37.42086970676717 45.33333333333333,37.90141482482454 46,36.518462784579874 46.666666666666664,37.33276145620883 47.33333333333333,36.40808531277165 48,38.23466949149965 48.666666666666664,37.75340258136881 49.33333333333333,44.594409304685826 50,46.92776701605593 50.666666666666664,40.437071157147464 51.33333333333333,44.91951015577441 52,44.711963904827336 52.666666666666664,44.38500096829895 53.33333333333333,45.51254382726368 54,44.157108047540575 54.666666666666664,44.839209531235255 55.33333333333333,41.90077800413855 56,40.38058363587291 56.666666666666664,39.89054657704278 57.33333333333333,37.24389264078 58,37.82053075992127 58.666666666666664,34.86391519324502 59.33333333333333,32.93213226270093 60,35.37480936319881 60.666666666666664,42.769907682226496 61.33333333333333,40.15772647407001 62,36.43656780775877 62.666666666666664,36.585480736539246 63.33333333333333,38.24426522551407 64,35.58778404188827 64.66666666666666,36.944564116444475 65.33333333333333,30.946968912854672 66,28.97401519065319 66.66666666666666,31.357394894422697 67.33333333333333,29.700026246445375 68,30.598438330884463 68.66666666666666,30.049728075922232 69.33333333333333,32.89257064664058 70,32.28496595293119 70.66666666666666,35.786343486430525 71.33333333333333,34.86515347121107 72,36.87476384666674 72.66666666666666,38.65879411863564 73.33333333333333,34.777831719243 74,34.43375547497661 74.66666666666666,39.596348107154114 75.33333333333333,38.830765809280166 76,40.57903983232903 76.66666666666666,42.02012306032669 77.33333333333333,46.68748274708513 78,49.165251705673796 78.66666666666666,45.26117613160603 79.33333333333333,48.811968882957565 80,50.5297690137261 80.66666666666666,46.769144985454915 81.33333333333333,47.94927799374076 82,55.0051514464419 82.66666666666666,53.58217138981169 83.33333333333333,59.62986717641667 84,67.66290303623774 84.66666666666666,60.55331929591114 85.33333333333333,53.979364137946156 86,51.90435608618385 86.66666666666666,57.43742933790891 87.33333333333333,37.02420703883034 88,33.59260076246311 88.66666666666666,35.286884791586004 89.33333333333333,33.09558472166216 90,32.19963765491781 90.66666666666666,33.48005602812748 91.33333333333333,40.83825414048027 92,36.26996646874742 92.66666666666666,21.92035917987296 93.33333333333333,20.965556205019368 94,5.737084291207452 94.66666666666666,5.340060643839024 95.33333333333333,5.866264924694931 96,2.657737628421188 96.66666666666666,0 97.33333333333333,9.357016080416813 98,14.359792062048257 98.66666666666666,11.380130598985389 99.33333333333333,18.299985855547163 100,16.836901838809013" stroke="#D9475A" stroke-linecap="round" stroke-width="1.4" fill="none" vector-effect="non-scaling-stroke"></polyline></svg>