<svg xmlns="http://www.w3.org/2000/svg" version="1.1" viewBox="0 0 100 100" preserveAspectRatio="none" class="css-1aadux1"><polyline points=" 0,57.02319850172704 0.6666666666666666,57.93900638552021 1.3333333333333333,60.01218174576463 2,58.55251294872765 2.6666666666666665,61.59103003718522 3.333333333333333,62.48144551805473 4,60.41700859934722 4.666666666666666,66.49311659272269 5.333333333333333,66.2217561708848 6,100 6.666666666666666,99.83642930125242 7.333333333333333,91.55408666455536 8,87.5600707458823 8.666666666666666,85.55903375919583 9.333333333333332,91.34712533131383 10,93.40534479435391 10.666666666666666,92.70910347750092 11.333333333333332,82.93315339679026 12,77.45546619644554 12.666666666666666,75.76653232310872 13.333333333333332,69.55235296100503 14,71.86350877908667 14.666666666666666,74.10705331235212 15.333333333333332,71.98639809032217 16,79.69636997277135 16.666666666666664,82.42037218674487 17.333333333333332,84.00566529639899 18,81.2389194554872 18.666666666666664,77.72623473239496 19.333333333333332,73.85330407635293 20,71.84229022885964 20.666666666666664,73.22263545765452 21.333333333333332,63.840091749479285 22,68.45785812568128 22.666666666666664,68.06948876440222 23.333333333333332,57.869170945859786 24,50.70526898503908 24.666666666666664,53.74420026741236 25.333333333333332,58.61067884353559 26,61.74672827858388 26.666666666666664,61.698622961876346 27.333333333333332,59.51467954755429 28,60.269655526305016 28.666666666666664,58.87676303435704 29.333333333333332,58.472885503736435 30,57.16561142944666 30.666666666666664,60.35832006548667 31.333333333333332,49.80484146959863 32,55.50498486573324 32.666666666666664,51.007305659887066 33.33333333333333,49.901670710189705 34,47.60737566018288 34.666666666666664,50.07403026267509 35.33333333333333,53.336231419887 36,52.08639060150866 36.666666666666664,52.555327640291274 37.33333333333333,51.52098867302816 38,53.28709318847213 38.666666666666664,54.47752593305742 39.33333333333333,56.98535947956385 40,57.55597806619288 40.666666666666664,57.70922087624966 41.33333333333333,54.11398921982341 42,55.6786032224676 42.666666666666664,53.71257637064857 43.33333333333333,53.68780875360016 44,53.91251275974185 44.666666666666664,53.76698192404753 45.33333333333333,52.7580256746325 46,50.91677627333411 46.666666666666664,70.71038825320214 47.33333333333333,61.50315290932446 48,60.1816307905194 48.666666666666664,61.50282655757779 49.33333333333333,60.19275535393594 50,60.305567040344656 50.666666666666664,59.30712504853359 51.33333333333333,59.46666257257949 52,57.55837265468465 52.666666666666664,59.40316245875516 53.33333333333333,59.629422950996 54,57.322411593945574 54.666666666666664,58.878221579506054 55.33333333333333,56.29875914335589 56,55.482992997908624 56.666666666666664,57.50980717382672 57.33333333333333,56.309850076474554 58,57.63000782220741 58.666666666666664,55.04621866727474 59.33333333333333,55.500422822302546 60,55.91691528612708 60.666666666666664,54.503624872114656 61.33333333333333,58.22977994401384 62,55.51998964399818 62.666666666666664,56.181541641849236 63.33333333333333,57.61040185716166 64,56.90347767651654 64.66666666666666,55.22982026318123 65.33333333333333,57.86335565068105 66,56.717588391316866 66.66666666666666,57.87406389348825 67.33333333333333,54.9849776056064 68,57.12298725545577 68.66666666666666,56.126982362155516 69.33333333333333,54.14088600946536 70,54.85383976129563 70.66666666666666,52.48900498000514 71.33333333333333,56.45127015749015 72,58.38027344366332 72.66666666666666,60.05776714120238 73.33333333333333,60.997387585334685 74,63.93757652843787 74.66666666666666,66.26468817109682 75.33333333333333,64.44976543145982 76,62.544172139057 76.66666666666666,64.26728459731737 77.33333333333333,64.44517455993827 78,63.67880623313139 78.66666666666666,65.70081969469426 79.33333333333333,70.57384787416339 80,64.29194291823248 80.66666666666666,70.75687798513117 81.33333333333333,71.54530308180156 82,67.99703922307431 82.66666666666666,67.76798542591095 83.33333333333333,67.89610593092561 84,68.48182290663343 84.66666666666666,58.25983568942822 85.33333333333333,48.99538218616847 86,34.73569566595664 86.66666666666666,33.91597624194492 87.33333333333333,28.28772899568024 88,27.825449175083023 88.66666666666666,16.79107292944822 89.33333333333333,25.14110597998858 90,31.291567192375098 90.66666666666666,26.67900886545094 91.33333333333333,19.575462816787763 92,20.67943723271229 92.66666666666666,11.958335711416197 93.33333333333333,15.799175306746577 94,13.457658280960146 94.66666666666666,9.823223478598749 95.33333333333333,10.157413803673322 96,0 96.66666666666666,19.449227084771223 97.33333333333333,16.499871558383006 98,18.732541499244647 98.66666666666666,22.837857256125886 99.33333333333333,30.833114453006175 100,22.808688833953823" stroke="#00A68C" stroke-linecap="round" stroke-width="1.4" fill="none" vector-effect="non-scaling-stroke"></polyline></svg>