<svg xmlns="http://www.w3.org/2000/svg" version="1.1" viewBox="0 0 100 100" preserveAspectRatio="none" class="css-1aadux1"><polyline points=" 0,72.49652433278202 0.6666666666666666,74.13953672594549 1.3333333333333333,75.74455798463514 2,77.22944650022013 2.6666666666666665,77.68811795646681 3.333333333333333,76.74034992584873 4,76.92592719347435 4.666666666666666,76.97026858470207 5.333333333333333,76.51410221941472 6,77.96371725860237 6.666666666666666,78.76665263737485 7.333333333333333,87.61401317444114 8,84.79506776460045 8.666666666666666,89.31873031994786 9.333333333333332,100 10,94.1701607105192 10.666666666666666,96.48058719862023 11.333333333333332,92.982361715409 12,94.25179298343524 12.666666666666666,95.8605261470311 13.333333333333332,97.01007214724595 14,92.91971702952495 14.666666666666666,86.3319290545775 15.333333333333332,87.45706514896918 16,82.95572249712004 16.666666666666664,80.28750915092223 17.333333333333332,83.9589092599517 18,68.45895865466737 18.666666666666664,71.84816163957323 19.333333333333332,75.52365702744045 20,74.85329187401491 20.666666666666664,76.53019598006463 21.333333333333332,75.28044122108737 22,73.87147700746571 22.666666666666664,72.84601287715506 23.333333333333332,72.67914327392161 24,71.43780582023615 24.666666666666664,70.79954788148885 25.333333333333332,70.96617147919179 26,71.05720600365474 26.666666666666664,69.73011734404923 27.333333333333332,71.74743120660064 28,71.54761164146716 28.666666666666664,70.57582678592914 29.333333333333332,72.83384758219628 30,71.37369992518471 30.666666666666664,67.51051251481064 31.333333333333332,68.44406777434976 32,66.57248406004427 32.666666666666664,64.38957942405119 33.33333333333333,63.086267666904256 34,60.18619732497147 34.666666666666664,57.95420371534369 35.33333333333333,55.478067149984234 36,50.76440613947497 36.666666666666664,51.02520135590965 37.33333333333333,46.86039962648386 38,45.12706895367084 38.666666666666664,43.48115754512089 39.33333333333333,45.82408830536021 40,40.513199839449335 40.666666666666664,42.85209403549053 41.33333333333333,42.62940095674998 42,47.3505039857469 42.666666666666664,46.76393521281551 43.33333333333333,44.29910216728382 44,43.16073789007079 44.666666666666664,44.32743982749575 45.33333333333333,43.445554013991064 46,42.78093571183808 46.666666666666664,43.85681659180667 47.33333333333333,40.93449563217691 48,31.829769222072812 48.666666666666664,33.96383967996658 49.33333333333333,37.932492194523704 50,39.960138475753205 50.666666666666664,36.259686876183814 51.33333333333333,34.07066885833045 52,33.89773271755362 52.666666666666664,34.11409043875037 53.33333333333333,36.901604097963514 54,35.452647137648725 54.666666666666664,33.47617114036086 55.33333333333333,34.91819044034787 56,33.95278244129976 56.666666666666664,31.114572104456343 57.33333333333333,31.843066844241307 58,32.644044349720005 58.666666666666664,32.19360826001129 59.33333333333333,31.884321998759063 60,32.3106635714726 60.666666666666664,32.57566620760328 61.33333333333333,32.088993434497226 62,32.34852025761094 62.666666666666664,33.305605629465305 63.33333333333333,34.895553773841655 64,34.79121169404286 64.66666666666666,36.22229645044306 65.33333333333333,34.895209948054315 66,35.6419258874034 66.66666666666666,33.83163270369792 67.33333333333333,33.44229490131072 68,32.492758563890334 68.66666666666666,31.825221432656974 69.33333333333333,31.771215877062872 70,33.56862489054208 70.66666666666666,32.12288322231204 71.33333333333333,30.16616815489583 72,28.646746262781036 72.66666666666666,28.55890799980004 73.33333333333333,22.67177407072586 74,16.95148937091618 74.66666666666666,7.956804875436603 75.33333333333333,5.638719169833493 76,2.8242516412673666 76.66666666666666,4.447952310803586 77.33333333333333,7.790605643472517 78,8.727821481211535 78.66666666666666,7.162986654755727 79.33333333333333,4.490222435554941 80,7.359482955393474 80.66666666666666,4.607643035406724 81.33333333333333,6.469473568444016 82,10.185667175209929 82.66666666666666,8.501694491793828 83.33333333333333,12.494637242815003 84,17.958792650476354 84.66666666666666,15.241690112427449 85.33333333333333,10.497174654660569 86,9.183614001751877 86.66666666666666,14.38636385786667 87.33333333333333,3.603099238604912 88,4.945829322846123 88.66666666666666,7.489665522841534 89.33333333333333,9.266352956097379 90,9.543893969470645 90.66666666666666,10.96344535365239 91.33333333333333,14.825564057691821 92,12.871425602249985 92.66666666666666,15.801397899018909 93.33333333333333,13.942480496379545 94,12.777231096341737 94.66666666666666,13.477420267560234 95.33333333333333,12.241503409924604 96,11.999302595612065 96.66666666666666,11.573443760548102 97.33333333333333,10.982146441602055 98,9.663318075484412 98.66666666666666,8.727895082102137 99.33333333333333,5.432934704265136 100,0" stroke="#00A68C" stroke-linecap="round" stroke-width="1.4" fill="none" vector-effect="non-scaling-stroke"></polyline></svg>