<svg xmlns="http://www.w3.org/2000/svg" version="1.1" viewBox="0 0 100 100" preserveAspectRatio="none" class="css-1aadux1"><polyline points=" 0,36.940333301200525 0.6666666666666666,24.972895966787817 1.3333333333333333,27.690880039697504 2,28.214320575702317 2.6666666666666665,27.516861514726017 3.333333333333333,16.828314104148006 4,21.06965352752634 4.666666666666666,0 5.333333333333333,17.57388937510011 6,43.76644676861563 6.666666666666666,55.976420826600645 7.333333333333333,82.47482622943281 8,68.68366712044025 8.666666666666666,100 9.333333333333332,94.9319607277657 10,66.22093656622197 10.666666666666666,63.38684577276896 11.333333333333332,57.955541057467656 12,73.94812119365571 12.666666666666666,75.75654349290559 13.333333333333332,73.18992194280467 14,66.3135390421409 14.666666666666666,46.585760881099056 15.333333333333332,51.45077932145329 16,34.79676675791218 16.666666666666664,33.88663959314776 17.333333333333332,45.735514222720596 18,42.007951044878524 18.666666666666664,62.07399067465663 19.333333333333332,61.650797959333595 20,60.20948279691741 20.666666666666664,59.18622639449115 21.333333333333332,54.286449695003306 22,56.80249243200873 22.666666666666664,58.73884370698398 23.333333333333332,57.71545845751759 24,59.52941273779005 24.666666666666664,65.18624080282933 25.333333333333332,63.53340982574551 26,66.38514721138407 26.666666666666664,63.60093240996024 27.333333333333332,68.01927608903783 28,76.92102048424665 28.666666666666664,81.2062446823019 29.333333333333332,82.85732407095766 30,76.97582806584177 30.666666666666664,73.88745428052461 31.333333333333332,76.00773763287738 32,75.40790287446983 32.666666666666664,73.42529898531002 33.33333333333333,80.86184837661665 34,73.45466905483146 34.666666666666664,72.6477090667795 35.33333333333333,74.11746518043601 36,71.82641815927167 36.666666666666664,75.07007543740896 37.33333333333333,75.59944902092613 38,75.26552940484328 38.666666666666664,77.20705514807119 39.33333333333333,77.61311658895494 40,75.65923330848878 40.666666666666664,68.93743699349132 41.33333333333333,59.87938083823756 42,58.60917184133604 42.666666666666664,63.135907724536985 43.33333333333333,63.86477054420716 44,59.89492560923248 44.666666666666664,60.2180910448138 45.33333333333333,63.2685048061503 46,58.09558564283236 46.666666666666664,52.345377883705865 47.33333333333333,52.80059349779001 48,41.323933861847394 48.666666666666664,48.22137925853658 49.33333333333333,64.07647956274754 50,53.06988865450504 50.666666666666664,50.688958434438085 51.33333333333333,51.84462892491793 52,51.49387909777165 52.666666666666664,53.84929866688028 53.33333333333333,52.6258591159565 54,52.13751900928874 54.666666666666664,45.84347756385404 55.33333333333333,49.86964114774914 56,48.55785682776149 56.666666666666664,46.07879783645523 57.33333333333333,49.9414228450451 58,49.45184127792977 58.666666666666664,49.73024150339227 59.33333333333333,53.11171209603709 60,55.70274020119806 60.666666666666664,58.12892997291894 61.33333333333333,58.47194975008274 62,56.47501468812941 62.666666666666664,54.558222192039274 63.33333333333333,56.017120164305815 64,49.65192898604091 64.66666666666666,48.51446481458649 65.33333333333333,52.22982165198155 66,53.28813787103129 66.66666666666666,50.40795419967648 67.33333333333333,51.29268980258593 68,54.025012501679235 68.66666666666666,55.51751193111241 69.33333333333333,54.7911137770457 70,56.67550947540171 70.66666666666666,56.554552216286254 71.33333333333333,54.06022844159315 72,53.25098291521831 72.66666666666666,53.15317737100292 73.33333333333333,53.631086389045166 74,58.067700370217025 74.66666666666666,57.90293899895906 75.33333333333333,60.05491298372219 76,64.73403673385042 76.66666666666666,68.7724028214783 77.33333333333333,65.13424836772957 78,63.66189404435514 78.66666666666666,62.91241243950265 79.33333333333333,62.12147612796412 80,62.899105118028885 80.66666666666666,64.05489007865344 81.33333333333333,65.61875227696666 82,72.84513940901242 82.66666666666666,67.3131193904015 83.33333333333333,75.72008038683316 84,75.43860784173 84.66666666666666,73.75581333625937 85.33333333333333,73.34459953975986 86,71.56866565877468 86.66666666666666,72.03140796958242 87.33333333333333,56.90012273558176 88,58.09115340973351 88.66666666666666,56.34157574298032 89.33333333333333,58.73609148874861 90,60.00449972068033 90.66666666666666,61.4709455481784 91.33333333333333,64.43255221950173 92,64.26443086750544 92.66666666666666,71.28214253566901 93.33333333333333,68.27645683723338 94,68.21305396987762 94.66666666666666,68.58791082912055 95.33333333333333,68.11796062456816 96,65.41174143828194 96.66666666666666,63.728215729582814 97.33333333333333,60.80620785826864 98,63.581301772176616 98.66666666666666,63.38466843456741 99.33333333333333,67.07677187795183 100,66.14840140911558" stroke="#D9475A" stroke-linecap="round" stroke-width="1.4" fill="none" vector-effect="non-scaling-stroke"></polyline></svg>