<svg xmlns="http://www.w3.org/2000/svg" version="1.1" viewBox="0 0 100 100" preserveAspectRatio="none" class="css-1aadux1"><polyline points=" 0,57.79910927495346 0.6666666666666666,55.74949270465243 1.3333333333333333,57.43139995421739 2,63.97005281014218 2.6666666666666665,61.41437114737011 3.333333333333333,61.519111687842674 4,57.5604695311355 4.666666666666666,49.39001358359461 5.333333333333333,50.68862486549566 6,46.425687977468456 6.666666666666666,43.69498057651878 7.333333333333333,63.17619822574333 8,62.32451344104535 8.666666666666666,77.71754115059016 9.333333333333332,100 10,87.59723977964819 10.666666666666666,94.74077458813775 11.333333333333332,83.67874637119473 12,79.42314465935988 12.666666666666666,88.33338471748374 13.333333333333332,91.88299277040453 14,86.26033779965911 14.666666666666666,58.76833128101424 15.333333333333332,46.721945747709185 16,49.250850231050926 16.666666666666664,36.021944129384394 17.333333333333332,38.411831467395395 18,37.119483563620356 18.666666666666664,30.016179102999644 19.333333333333332,41.78105788560337 20,33.65941199878314 20.666666666666664,48.28782062217169 21.333333333333332,41.38821959712897 22,41.96643825721663 22.666666666666664,34.30431164129672 23.333333333333332,31.79963396375814 24,31.139862575545976 24.666666666666664,34.24336566220815 25.333333333333332,38.94255991447062 26,35.58604639035515 26.666666666666664,41.83835331646492 27.333333333333332,44.79310645857952 28,42.93566290057535 28.666666666666664,42.29672293687532 29.333333333333332,49.13270598135632 30,47.082728544385446 30.666666666666664,44.78759669432942 31.333333333333332,42.59440694768711 32,43.37665605473353 32.666666666666664,45.58190679456916 33.33333333333333,44.20548358683959 34,43.618861028843426 34.666666666666664,40.53488516425183 35.33333333333333,35.25868530319424 36,36.24246881437115 36.666666666666664,33.023053928505206 37.33333333333333,29.443350006383454 38,27.50895696012887 38.666666666666664,27.625567608699768 39.33333333333333,28.41612150171116 40,31.28346792986393 40.666666666666664,28.025937157885267 41.33333333333333,23.067231425505113 42,24.395323162938652 42.666666666666664,26.54796538554055 43.33333333333333,25.472125196390607 44,25.97920049008505 44.666666666666664,21.474871912202417 45.33333333333333,18.51836104899249 46,18.32418123509659 46.666666666666664,17.363182572199378 47.33333333333333,16.6769622165331 48,15.607861422333755 48.666666666666664,16.63609461846758 49.33333333333333,11.34804156364288 50,30.952139743035673 50.666666666666664,20.88079777346104 51.33333333333333,21.69346202028501 52,23.28000642787144 52.666666666666664,19.165159513627188 53.33333333333333,24.166111324264932 54,25.176485653567596 54.666666666666664,26.825435824199033 55.33333333333333,23.805207981366422 56,23.280093550686814 56.666666666666664,19.93515560373943 57.33333333333333,20.84464762681101 58,21.543464481985225 58.666666666666664,18.874366416432295 59.33333333333333,19.502833453942912 60,20.121930321588465 60.666666666666664,25.396553257064895 61.33333333333333,22.606228727711496 62,22.837019941985048 62.666666666666664,21.631840929793327 63.33333333333333,22.094008849581485 64,22.729509917865983 64.66666666666666,28.017698963372737 65.33333333333333,27.09043597881079 66,26.687323842359262 66.66666666666666,27.05616107042708 67.33333333333333,26.503790011182204 68,25.528333501243225 68.66666666666666,24.59811800917626 69.33333333333333,24.2156374103008 70,19.935318900150804 70.66666666666666,21.111382123490372 71.33333333333333,19.199348718122778 72,18.059223942147355 72.66666666666666,20.607338744639918 73.33333333333333,18.86018069853887 74,18.88470227562283 74.66666666666666,18.075474179396267 75.33333333333333,19.23031231787074 76,20.51184948465587 76.66666666666666,20.813838982919364 77.33333333333333,25.444556425783844 78,24.65363716566533 78.66666666666666,23.049363063577474 79.33333333333333,22.89174302262765 80,24.50617704896628 80.66666666666666,25.385026617310956 81.33333333333333,25.617008377026423 82,31.717782162722315 82.66666666666666,33.71493702839304 83.33333333333333,32.134432017796925 84,39.80256606301662 84.66666666666666,37.43312590296893 85.33333333333333,33.32404118481119 86,33.45330569183541 86.66666666666666,33.87112258632888 87.33333333333333,18.079072984512962 88,9.538105277187753 88.66666666666666,8.63807104956436 89.33333333333333,4.475058810207017 90,6.0179153920494315 90.66666666666666,0.8006680093015461 91.33333333333333,3.241935923036934 92,5.564426238259614 92.66666666666666,8.209839901739826 93.33333333333333,5.960994425360738 94,5.105771868608244 94.66666666666666,2.5385729154238277 95.33333333333333,5.811045183471293 96,3.7635500331161893 96.66666666666666,0 97.33333333333333,0.6551055960983092 98,1.0859257251194805 98.66666666666666,0.8376034273140647 99.33333333333333,2.3254422138703035 100,5.459841794303131" stroke="#00A68C" stroke-linecap="round" stroke-width="1.4" fill="none" vector-effect="non-scaling-stroke"></polyline></svg>