<svg xmlns="http://www.w3.org/2000/svg" version="1.1" viewBox="0 0 100 100" preserveAspectRatio="none" class="css-1aadux1"><polyline points=" 0,43.40997231080844 0.6666666666666666,51.21573572111926 1.3333333333333333,47.97438408330091 2,54.742028551147506 2.6666666666666665,53.749950429051836 3.333333333333333,56.18051325204503 4,52.30071573349807 4.666666666666666,51.126955000371225 5.333333333333333,43.95146017632864 6,45.63119013352378 6.666666666666666,48.88181859458419 7.333333333333333,67.27238782514965 8,69.34220041155754 8.666666666666666,77.58041677905399 9.333333333333332,100 10,85.70043921190303 10.666666666666666,83.51620888910777 11.333333333333332,79.23161514354038 12,77.359799286532 12.666666666666666,82.96534272884765 13.333333333333332,82.53248834590406 14,85.32752207674116 14.666666666666666,72.69584001606387 15.333333333333332,55.469765461130784 16,57.997586909391394 16.666666666666664,47.768192565781085 17.333333333333332,49.40787257704318 18,54.067261818001285 18.666666666666664,49.70624903198987 19.333333333333332,57.81082422892311 20,55.137001985380664 20.666666666666664,58.75157511976712 21.333333333333332,51.14019216805158 22,48.191591900305205 22.666666666666664,47.57001037940546 23.333333333333332,47.39023896967451 24,49.47242235584205 24.666666666666664,53.773157092642556 25.333333333333332,56.41435025753617 26,57.139908326834124 26.666666666666664,55.80752234252026 27.333333333333332,54.96590720869187 28,55.278467330992 28.666666666666664,56.81266395443011 29.333333333333332,57.44815945549744 30,57.93584474586121 30.666666666666664,55.40909814285061 31.333333333333332,52.168240070738584 32,51.65332698067287 32.666666666666664,49.3670566847376 33.33333333333333,48.80729550152196 34,51.23237119819522 34.666666666666664,46.8340204178153 35.33333333333333,46.575224626527664 36,46.31919908245934 36.666666666666664,43.16785951783686 37.33333333333333,42.762392782979575 38,43.44891776354463 38.666666666666664,46.78857811720849 39.33333333333333,43.61431060431974 40,46.7414590126229 40.666666666666664,48.364995930910126 41.33333333333333,47.336571730783795 42,49.054059912615685 42.666666666666664,49.764164440316286 43.33333333333333,47.989826780903876 44,49.256363326581386 44.666666666666664,44.95025089107234 45.33333333333333,47.988838702986946 46,46.32602535432056 46.666666666666664,45.756119137094096 47.33333333333333,43.99045681444138 48,44.64838009784926 48.666666666666664,40.7958875659468 49.33333333333333,32.26477354173642 50,54.31429571244556 50.666666666666664,40.32305760318392 51.33333333333333,35.24192720345404 52,33.81235465159051 52.666666666666664,29.419173462694218 53.33333333333333,33.4750287307573 54,37.331146546861625 54.666666666666664,38.08817438788079 55.33333333333333,39.03664003786208 56,39.451263483098344 56.666666666666664,35.97832471311648 57.33333333333333,37.04652142031824 58,37.03308957906876 58.666666666666664,35.596697230763965 59.33333333333333,35.34613068432982 60,35.90927133017635 60.666666666666664,37.42546816391666 61.33333333333333,37.91897494306829 62,36.98050587650907 62.666666666666664,35.83665828564776 63.33333333333333,36.657483318711506 64,36.28756497257207 64.66666666666666,38.95105950513448 65.33333333333333,38.40358726135319 66,36.870088577494606 66.66666666666666,37.14852237034811 67.33333333333333,36.431474931653284 68,35.538171616020946 68.66666666666666,37.30038428390178 69.33333333333333,36.77900020880409 70,33.41979522794081 70.66666666666666,32.84709588085171 71.33333333333333,29.443898258695683 72,26.7305155467174 72.66666666666666,27.436464201428706 73.33333333333333,28.17636116635792 74,26.713832413707593 74.66666666666666,25.10759540966042 75.33333333333333,24.670126902969102 76,25.74420577018131 76.66666666666666,24.004623358007535 77.33333333333333,28.484920403229353 78,29.957108177734312 78.66666666666666,27.50559051322257 79.33333333333333,27.51208693879559 80,27.38488813674988 80.66666666666666,28.072318254816963 81.33333333333333,28.132656839431604 82,30.511094300805837 82.66666666666666,36.624231643255115 83.33333333333333,32.344664908805214 84,38.670734740956945 84.66666666666666,36.465729846539354 85.33333333333333,34.804384529427494 86,35.43549340046614 86.66666666666666,34.12505817431352 87.33333333333333,29.135507431644456 88,13.011179546888329 88.66666666666666,12.029988528613416 89.33333333333333,7.70127383626172 90,8.248021001046652 90.66666666666666,5.727716489364525 91.33333333333333,3.223171117450846 92,5.9751826081046175 92.66666666666666,3.919926736502404 93.33333333333333,0.8539225232458136 94,1.1472714498363388 94.66666666666666,0 95.33333333333333,4.243068044242946 96,1.8831687820359093 96.66666666666666,0.3237495883860646 97.33333333333333,4.892114089177326 98,3.8281398601545504 98.66666666666666,2.6764649411859978 99.33333333333333,4.7145249353292655 100,9.771959836944049" stroke="#00A68C" stroke-linecap="round" stroke-width="1.4" fill="none" vector-effect="non-scaling-stroke"></polyline></svg>