<svg xmlns="http://www.w3.org/2000/svg" version="1.1" viewBox="0 0 100 100" preserveAspectRatio="none" class="css-1aadux1"><polyline points=" 0,25.573466903565162 0.6666666666666666,27.231864238308972 1.3333333333333333,31.334358131743954 2,33.65973845062007 2.6666666666666665,35.76677998505525 3.333333333333333,42.04914102596635 4,47.454072922634474 4.666666666666666,56.60298759120905 5.333333333333333,52.114821089450494 6,100 6.666666666666666,99.01657285484325 7.333333333333333,85.89375471810752 8,83.26436664980432 8.666666666666666,78.20182533630984 9.333333333333332,87.0286401417026 10,90.81165029088491 10.666666666666666,89.45542008356244 11.333333333333332,76.04378493446734 12,66.16105485310672 12.666666666666666,62.45688882947996 13.333333333333332,41.26364870178912 14,47.9885294470354 14.666666666666666,49.05443369215175 15.333333333333332,45.85046414105618 16,55.917222080977155 16.666666666666664,59.15958233055503 17.333333333333332,53.289106397923426 18,50.45655146585133 18.666666666666664,44.4527500189557 19.333333333333332,40.94781381870472 20,36.147571433515935 20.666666666666664,40.50366999633008 21.333333333333332,30.93418831758693 22,31.82764918158452 22.666666666666664,27.76138584051239 23.333333333333332,12.83941857212723 24,13.928837763862234 24.666666666666664,20.567712260063274 25.333333333333332,27.724904259560915 26,31.839003004130262 26.666666666666664,34.45220054128771 27.333333333333332,31.354691923215967 28,29.552869874784207 28.666666666666664,32.62354321642451 29.333333333333332,34.214162780520624 30,29.445923321501255 30.666666666666664,38.65113102902109 31.333333333333332,32.36061372376143 32,37.73318175343575 32.666666666666664,34.41039321322796 33.33333333333333,32.562820403307654 34,30.115178024327832 34.666666666666664,31.121683040210712 35.33333333333333,34.04596269461517 36,29.131767227212322 36.666666666666664,31.690693481920306 37.33333333333333,27.417209043592734 38,26.263376044457218 38.666666666666664,29.660430940178657 39.33333333333333,32.748354997944745 40,34.39447961836656 40.666666666666664,36.91876345256851 41.33333333333333,31.32607438621912 42,35.675314524118406 42.666666666666664,34.42676584111139 43.33333333333333,31.14095479686192 44,32.99494066027134 44.666666666666664,32.52509219012238 45.33333333333333,32.01474669633943 46,28.17223805367348 46.666666666666664,49.29470968161574 47.33333333333333,37.51337085856714 48,25.903126082445425 48.666666666666664,28.78910996882847 49.33333333333333,30.84161027025631 50,29.216721054253668 50.666666666666664,22.40893805558092 51.33333333333333,22.519989298326834 52,20.537398459590875 52.666666666666664,21.672782908991124 53.33333333333333,24.14602712460629 54,20.426591456491337 54.666666666666664,22.911176223961277 55.33333333333333,19.88562551478371 56,17.853512570806814 56.666666666666664,20.128567376018253 57.33333333333333,12.815982901097627 58,21.29131016925035 58.666666666666664,13.430493437697407 59.33333333333333,19.106368397092268 60,19.13484285136687 60.666666666666664,16.343873724188427 61.33333333333333,25.040611519767538 62,29.554741964949272 62.666666666666664,27.762595825611328 63.33333333333333,31.57733941883191 64,29.61925515856521 64.66666666666666,29.593037769856224 65.33333333333333,29.869765842939316 66,27.42636938912834 66.66666666666666,29.883655581494395 67.33333333333333,28.47793807807551 68,30.97477384298324 68.66666666666666,30.38663558136365 69.33333333333333,31.701827082887434 70,30.879319027146963 70.66666666666666,28.922648540499495 71.33333333333333,33.41206643102937 72,27.259822179884694 72.66666666666666,33.87782167712675 73.33333333333333,35.60541726776181 74,42.59404390285903 74.66666666666666,43.66433261617296 75.33333333333333,39.82526037177557 76,37.904381187326806 76.66666666666666,38.77999606805697 77.33333333333333,40.03307682078645 78,39.193739065357434 78.66666666666666,41.95421699436386 79.33333333333333,48.8706711446939 80,38.944520220104536 80.66666666666666,43.31597378747287 81.33333333333333,42.80112512108908 82,36.8622570649352 82.66666666666666,33.80912765469793 83.33333333333333,36.02563985579066 84,38.770616808701085 84.66666666666666,27.97067988017227 85.33333333333333,22.10841199731685 86,14.758165390820892 86.66666666666666,16.807715845702973 87.33333333333333,18.12963669048675 88,16.26328922831462 88.66666666666666,13.007207836869824 89.33333333333333,13.05861912916545 90,15.276721839970065 90.66666666666666,10.383235981796446 91.33333333333333,0 92,3.7259730119950945 92.66666666666666,1.9491103455281547 93.33333333333333,2.8711303571352857 94,6.957820813068395 94.66666666666666,11.216969485718124 95.33333333333333,12.151185300980856 96,5.8897274810553455 96.66666666666666,15.356292214428066 97.33333333333333,14.083869311255768 98,18.676634876343485 98.66666666666666,20.036030632766185 99.33333333333333,31.55892946505614 100,24.183965739672715" stroke="#00A68C" stroke-linecap="round" stroke-width="1.4" fill="none" vector-effect="non-scaling-stroke"></polyline></svg>