<svg xmlns="http://www.w3.org/2000/svg" version="1.1" viewBox="0 0 100 100" preserveAspectRatio="none" class="css-1aadux1"><polyline points=" 0,68.27492317804837 0.6666666666666666,63.427627436180984 1.3333333333333333,66.34243802178014 2,70.88618387918669 2.6666666666666665,70.62753515958788 3.333333333333333,67.80309289362467 4,66.53490630041824 4.666666666666666,66.56323529066529 5.333333333333333,64.1584511461887 6,50.54545220196241 6.666666666666666,42.396756789391 7.333333333333333,72.24989016279497 8,59.02651085299298 8.666666666666666,68.32771607600294 9.333333333333332,95.87102607619327 10,93.3848145873308 10.666666666666666,100 11.333333333333332,84.38119143781486 12,90.02015234707575 12.666666666666666,94.4966473197661 13.333333333333332,97.54086597017115 14,92.12843167672659 14.666666666666666,78.6378859527895 15.333333333333332,70.57851131932856 16,62.407726147078 16.666666666666664,62.00057459291745 17.333333333333332,72.57055803113221 18,68.2184940434471 18.666666666666664,67.92572271084788 19.333333333333332,78.7237688680923 20,76.87598782213232 20.666666666666664,77.67812518082694 21.333333333333332,74.045063973739 22,71.08024941081965 22.666666666666664,69.86515383621571 23.333333333333332,68.07261966090266 24,68.1955161714654 24.666666666666664,65.06585246384262 25.333333333333332,65.69308480650403 26,67.38575507027845 26.666666666666664,57.348991890605376 27.333333333333332,49.778726032404194 28,42.646653726448605 28.666666666666664,46.77920900436479 29.333333333333332,49.01352648509244 30,43.84661392458299 30.666666666666664,44.89700508023643 31.333333333333332,41.46945145193298 32,41.674959281014104 32.666666666666664,34.47713946757743 33.33333333333333,34.425579443503324 34,28.190650187286963 34.666666666666664,16.23172739550371 35.33333333333333,22.688867786770388 36,19.936899866532258 36.666666666666664,23.790430800416758 37.33333333333333,15.838611875991063 38,14.387538383284166 38.666666666666664,25.507260460400943 39.33333333333333,26.519140235991543 40,28.981907091324288 40.666666666666664,23.966592270742424 41.33333333333333,26.361352726455507 42,29.84509846435303 42.666666666666664,28.28965994874062 43.33333333333333,29.248335428839027 44,28.951272196934326 44.666666666666664,26.542705389889576 45.33333333333333,23.674268278782122 46,25.237507154374455 46.666666666666664,21.29733342225451 47.33333333333333,12.426866584773435 48,16.889684056844473 48.666666666666664,13.649458171587199 49.33333333333333,20.75695811208682 50,18.07604221668211 50.666666666666664,12.906846294023438 51.33333333333333,17.107882445796434 52,17.718147709404718 52.666666666666664,22.324780724113808 53.33333333333333,27.766381275834092 54,25.36210014530731 54.666666666666664,22.766438001538006 55.33333333333333,24.886484893149074 56,21.233185388135055 56.666666666666664,22.934209660758214 57.33333333333333,19.54429401166537 58,15.283928403405184 58.666666666666664,14.865465121418666 59.33333333333333,14.557580137144086 60,16.18066085130691 60.666666666666664,21.798321780018597 61.33333333333333,19.757639031554206 62,22.596765022979483 62.666666666666664,22.394957765096706 63.33333333333333,22.003570424328657 64,22.29375293989814 64.66666666666666,28.75989337997632 65.33333333333333,25.36644824489933 66,24.117114593114593 66.66666666666666,23.310707348639852 67.33333333333333,22.806398062839563 68,26.260582724098953 68.66666666666666,27.97072597272006 69.33333333333333,22.364906880286313 70,20.362905462839763 70.66666666666666,21.186221139182308 71.33333333333333,19.937037014581648 72,18.74818100153493 72.66666666666666,19.861102311829683 73.33333333333333,16.457809202955815 74,18.028638806747324 74.66666666666666,19.22219711852287 75.33333333333333,21.47887809310231 76,23.982765269767157 76.66666666666666,27.84396082132561 77.33333333333333,29.843079357707097 78,31.45844324917128 78.66666666666666,26.989923750736295 79.33333333333333,27.906090402223583 80,26.732801896862014 80.66666666666666,26.237266532068006 81.33333333333333,26.671270333943482 82,34.65842517097181 82.66666666666666,30.247922871661416 83.33333333333333,37.35320930589315 84,47.68053337363482 84.66666666666666,43.89121802697481 85.33333333333333,37.857680251840755 86,35.69759256014092 86.66666666666666,40.60544425550463 87.33333333333333,23.494438491750287 88,13.131901055003809 88.66666666666666,15.936569708153144 89.33333333333333,16.358244574334236 90,15.42178349665231 90.66666666666666,15.11860642052389 91.33333333333333,21.304483304567952 92,20.422279274394683 92.66666666666666,20.063420808169695 93.33333333333333,22.97495733941723 94,18.433070712995587 94.66666666666666,20.46371938202695 95.33333333333333,20.75059204006621 96,17.395901897964933 96.66666666666666,18.946641363820675 97.33333333333333,18.067743179632927 98,18.826236036349954 98.66666666666666,9.689312601408986 99.33333333333333,0 100,4.97983078661305" stroke="#00A68C" stroke-linecap="round" stroke-width="1.4" fill="none" vector-effect="non-scaling-stroke"></polyline></svg>