<svg xmlns="http://www.w3.org/2000/svg" version="1.1" viewBox="0 0 100 100" preserveAspectRatio="none" class="css-1aadux1"><polyline points=" 0,83.62406590370307 0.6666666666666666,84.8759212748916 1.3333333333333333,91.86644139243161 2,93.98729197951317 2.6666666666666665,93.35709732492346 3.333333333333333,92.97408585567514 4,97.47950247258782 4.666666666666666,99.50095100488473 5.333333333333333,99.24903758680348 6,94.71433301968594 6.666666666666666,81.75548266037941 7.333333333333333,93.42121411541085 8,75.45173195385769 8.666666666666666,93.39568539427776 9.333333333333332,91.34145432053933 10,60.04809692754545 10.666666666666666,66.69400166665864 11.333333333333332,79.4450480112211 12,86.12883926869154 12.666666666666666,91.60254723919509 13.333333333333332,87.0714361888623 14,88.71956363823273 14.666666666666666,87.37523044267878 15.333333333333332,87.88402264240311 16,84.8303064530123 16.666666666666664,81.18827070371647 17.333333333333332,67.71079077997194 18,71.03662173223746 18.666666666666664,71.42362212570092 19.333333333333332,76.37967939337656 20,65.57645260557507 20.666666666666664,55.40657134638955 21.333333333333332,44.49225873167838 22,33.88970213296406 22.666666666666664,41.545346136256576 23.333333333333332,35.47833195142424 24,37.388018958701586 24.666666666666664,42.08979590637809 25.333333333333332,44.18074043927859 26,37.32242452525606 26.666666666666664,43.73799943141841 27.333333333333332,55.8339384503667 28,55.62902608758045 28.666666666666664,43.025564561529485 29.333333333333332,53.782465715670966 30,60.18295250622161 30.666666666666664,60.375056343232366 31.333333333333332,57.244935148892814 32,60.740155860860035 32.666666666666664,62.72132750868018 33.33333333333333,64.16998000939847 34,74.73299079276455 34.666666666666664,52.6993304075684 35.33333333333333,27.17616823064202 36,13.389082378009249 36.666666666666664,28.95505330129295 37.33333333333333,26.544349584097063 38,24.897516309588056 38.666666666666664,24.939898651238394 39.33333333333333,29.1431316930898 40,27.29015428897725 40.666666666666664,27.41134411185824 41.33333333333333,13.301600580972817 42,99.23599918068436 42.666666666666664,100 43.33333333333333,41.03881179215912 44,22.09861253189959 44.666666666666664,26.983881886635103 45.33333333333333,41.113816839433134 46,47.68482875656793 46.666666666666664,52.02599025454962 47.33333333333333,46.5383187233349 48,48.42919648652722 48.666666666666664,5.343727716516156 49.33333333333333,24.968937155248057 50,29.91991853710026 50.666666666666664,35.37282080092204 51.33333333333333,39.70020147153377 52,25.42241162966583 52.666666666666664,23.9155426384512 53.33333333333333,24.312170992968973 54,16.284078873117792 54.666666666666664,15.422893753385807 55.33333333333333,17.361266101836136 56,13.027010598978862 56.666666666666664,3.8041229402926717 57.33333333333333,21.75045215068613 58,30.08768663816953 58.666666666666664,26.925567079358103 59.33333333333333,30.621172525061127 60,15.060507071833655 60.666666666666664,29.650017154068422 61.33333333333333,38.232407395355075 62,34.31989789444023 62.666666666666664,35.58448446353634 63.33333333333333,33.754197045903595 64,35.08176454731404 64.66666666666666,41.092388842402094 65.33333333333333,42.452461666866256 66,22.397159543925426 66.66666666666666,43.707657354751305 67.33333333333333,48.81306059084156 68,27.8568094852954 68.66666666666666,50.80828810074264 69.33333333333333,48.78940823922295 70,47.2524210069722 70.66666666666666,48.74330125830097 71.33333333333333,53.70905344084632 72,47.511455539200064 72.66666666666666,55.936759795093806 73.33333333333333,52.22242038685113 74,54.03480809358153 74.66666666666666,48.92453648998547 75.33333333333333,46.55013039823663 76,50.032097597027914 76.66666666666666,50.60784000023703 77.33333333333333,53.61924556299792 78,0 78.66666666666666,53.18793839813769 79.33333333333333,28.826651121664455 80,46.43610580563081 80.66666666666666,47.89507633722805 81.33333333333333,48.798372119213354 82,53.03283138745459 82.66666666666666,51.47336137948307 83.33333333333333,57.78830453541053 84,49.7005755192999 84.66666666666666,51.61207582863271 85.33333333333333,35.43975038136129 86,43.286925591890245 86.66666666666666,54.58555143858765 87.33333333333333,31.97472498539328 88,59.586841090598604 88.66666666666666,60.03573749184523 89.33333333333333,68.3168923609143 90,69.80921694814326 90.66666666666666,68.94560273691042 91.33333333333333,66.49869337547952 92,95.46343864435042 92.66666666666666,79.18975548538089 93.33333333333333,91.43584631857112 94,86.82521796172028 94.66666666666666,90.27302280120668 95.33333333333333,89.95400889032359 96,80.47052715454575 96.66666666666666,92.79542279541093 97.33333333333333,93.86825411656187 98,63.88963663044269 98.66666666666666,75.05166676488668 99.33333333333333,75.3366865283951 100,97.54375921228774" stroke="#D9475A" stroke-linecap="round" stroke-width="1.4" fill="none" vector-effect="non-scaling-stroke"></polyline></svg>