<svg xmlns="http://www.w3.org/2000/svg" version="1.1" viewBox="0 0 100 100" preserveAspectRatio="none" class="css-1aadux1"><polyline points=" 0,82.68688234118783 0.6666666666666666,84.85909823573982 1.3333333333333333,83.6613942930644 2,85.60271182825295 2.6666666666666665,84.37219403831301 3.333333333333333,86.67868136040116 4,89.09188312206813 4.666666666666666,89.21756427828974 5.333333333333333,91.3577268105133 6,98.96247117748761 6.666666666666666,99.39519431972401 7.333333333333333,100 8,94.71292014204346 8.666666666666666,91.55764574051175 9.333333333333332,94.58456284032644 10,95.77052378460624 10.666666666666666,94.10257146934318 11.333333333333332,90.20657511324129 12,87.24503068354869 12.666666666666666,86.94981841627788 13.333333333333332,84.62865063282497 14,86.23943037563704 14.666666666666666,87.44143559257981 15.333333333333332,85.72404432317965 16,88.86167113086745 16.666666666666664,86.39039036896472 17.333333333333332,85.55838964038053 18,83.81206682437879 18.666666666666664,85.01495534306761 19.333333333333332,84.17870119408367 20,84.35130181759202 20.666666666666664,84.18173634422621 21.333333333333332,84.38229274902358 22,85.106657687862 22.666666666666664,83.11424842739824 23.333333333333332,83.3090633635282 24,83.61970805078147 24.666666666666664,82.68480483313056 25.333333333333332,82.18067198480217 26,85.59874260746835 26.666666666666664,84.75095523696 27.333333333333332,86.05396079852228 28,84.45672962095523 28.666666666666664,85.5063164213849 29.333333333333332,85.25090823842267 30,85.7394673884717 30.666666666666664,85.24073631145703 31.333333333333332,83.37666260584699 32,83.6286462270878 32.666666666666664,83.17063856043353 33.33333333333333,82.53680360552094 34,80.67429354095415 34.666666666666664,79.94519158859865 35.33333333333333,80.44735937009284 36,79.43738401253064 36.666666666666664,79.12466173264171 37.33333333333333,80.90677992485728 38,80.55520812078043 38.666666666666664,82.18561886167294 39.33333333333333,82.54960933701994 40,81.07999139932016 40.666666666666664,79.93263590389198 41.33333333333333,76.45945442434768 42,80.30111176084316 42.666666666666664,75.65723025456484 43.33333333333333,79.9405468811557 44,80.33362784974892 44.666666666666664,79.25259747139455 45.33333333333333,78.48333786381664 46,77.79196596159306 46.666666666666664,82.28807809009425 47.33333333333333,78.57642849570335 48,78.32001837195254 48.666666666666664,77.62153515182528 49.33333333333333,75.62198679882391 50,75.06276076978233 50.666666666666664,74.41706104321685 51.33333333333333,70.6719302443553 52,77.1886492282188 52.666666666666664,74.67069035546115 53.33333333333333,74.63625417709224 54,73.86161692017873 54.666666666666664,73.97724688711202 55.33333333333333,69.85543409267842 56,70.37361435828247 56.666666666666664,69.75588245413262 57.33333333333333,70.19839488048734 58,70.71812180132534 58.666666666666664,69.43068642589043 59.33333333333333,68.93123754731884 60,71.0213499197167 60.666666666666664,69.47269647572745 61.33333333333333,71.1045494899419 62,71.89715054189801 62.666666666666664,72.4554435732727 63.33333333333333,72.10457280835394 64,71.703118660807 64.66666666666666,70.67261075721902 65.33333333333333,70.70550764477258 66,71.31968459312324 66.66666666666666,72.63681785385847 67.33333333333333,73.19606316461804 68,72.4229611679898 68.66666666666666,71.34602318333137 69.33333333333333,71.76736466928432 70,71.1880646257258 70.66666666666666,70.44859212733593 71.33333333333333,72.20487045197552 72,71.91500931641266 72.66666666666666,72.8438631697145 73.33333333333333,73.41954796639938 74,76.74475695817766 74.66666666666666,75.11219578821425 75.33333333333333,74.2806830154927 76,73.39119712423663 76.66666666666666,74.9920494479672 77.33333333333333,75.0158959277195 78,73.79128697597079 78.66666666666666,73.7886848124804 79.33333333333333,75.90066996775515 80,76.01037311919276 80.66666666666666,79.92012045282479 81.33333333333333,80.14976582411063 82,77.8656182771772 82.66666666666666,77.23579076765336 83.33333333333333,76.47329990202124 84,74.0495489617879 84.66666666666666,72.6058013095635 85.33333333333333,71.44579004967346 86,69.96586566327855 86.66666666666666,68.21503490690625 87.33333333333333,68.5469014667465 88,51.027185144418816 88.66666666666666,50.772772478888264 89.33333333333333,55.78808422542528 90,51.600785374432604 90.66666666666666,45.91200671034584 91.33333333333333,32.346558973258865 92,40.86169338736914 92.66666666666666,32.05397295628855 93.33333333333333,34.65072232459535 94,34.84605962801581 94.66666666666666,31.758973516289075 95.33333333333333,23.867055258507534 96,17.97184896713283 96.66666666666666,17.622888737500347 97.33333333333333,2.9979944668556158 98,0 98.66666666666666,10.440117545920273 99.33333333333333,12.950164460960451 100,10.705989803869556" stroke="#00A68C" stroke-linecap="round" stroke-width="1.4" fill="none" vector-effect="non-scaling-stroke"></polyline></svg>