    <svg xmlns="http://www.w3.org/2000/svg" version="1.1" viewBox="0 0 100 100" preserveAspectRatio="none" class="css-1aadux1"><polyline points=" 0,26.71921849753342 0.6666666666666666,27.080560772649847 1.3333333333333333,26.250685555398007 2,22.442877515655937 2.6666666666666665,19.252433086610125 3.333333333333333,18.189203593295403 4,17.93320878369073 4.666666666666666,16.090525030165608 5.333333333333333,15.631875541540623 6,18.17164410531987 6.666666666666666,22.393002410359514 7.333333333333333,100 8,37.78064488526998 8.666666666666666,78.42100104243157 9.333333333333332,23.403911518885238 10,13.633564782609767 10.666666666666666,11.451674266053288 11.333333333333332,15.29034829954196 12,15.925951804912799 12.666666666666666,18.115776118605666 13.333333333333332,15.708881203015494 14,13.437364522117718 14.666666666666666,13.971131683214594 15.333333333333332,15.805509290907807 16,13.887202774949557 16.666666666666664,1.9349210483501054 17.333333333333332,13.144400372325364 18,16.031093330016972 18.666666666666664,15.798195373871579 19.333333333333332,0 20,15.947901389444084 20.666666666666664,16.463598641100845 21.333333333333332,20.346697054747523 22,15.218892124065263 22.666666666666664,17.942838701191775 23.333333333333332,16.061880015341018 24,17.967504722334056 24.666666666666664,18.248236084505336 25.333333333333332,16.797050894531438 26,19.583230580153113 26.666666666666664,20.62468397064302 27.333333333333332,19.366586805078597 28,22.537893749283796 28.666666666666664,21.8412648433373 29.333333333333332,25.240437006166133 30,14.860725787807326 30.666666666666664,17.379916482494565 31.333333333333332,17.378651500351523 32,22.34603515631511 32.666666666666664,17.457394954935097 33.33333333333333,15.615312487972233 34,16.2691582585267 34.666666666666664,16.704189613547953 35.33333333333333,18.755685181930517 36,18.53791760190498 36.666666666666664,20.83246655776928 37.33333333333333,15.412242328929565 38,19.49499946530851 38.666666666666664,18.848840248624157 39.33333333333333,21.05709738075629 40,23.7168525343112 40.666666666666664,20.879316518529777 41.33333333333333,18.524714768740765 42,22.115686643151136 42.666666666666664,19.5708181580503 43.33333333333333,19.937246326379892 44,19.67253377734373 44.666666666666664,18.919475142177518 45.33333333333333,15.813831844801285 46,14.214171665049676 46.666666666666664,16.271746421147242 47.33333333333333,17.842938528529714 48,15.64740790880721 48.666666666666664,19.706656921065886 49.33333333333333,18.932272486845264 50,15.235606460748556 50.666666666666664,15.135713104827246 51.33333333333333,15.594436047275735 52,20.157381205607194 52.666666666666664,22.00834248269031 53.33333333333333,16.6544024539659 54,16.9965285925133 54.666666666666664,18.188229166749537 55.33333333333333,16.59673184005969 56,19.467163351705764 56.666666666666664,19.08792215034184 57.33333333333333,17.98845069068483 58,19.805355868239644 58.666666666666664,14.549500040594339 59.33333333333333,14.866895078219827 60,14.011273956482029 60.666666666666664,15.54563819820369 61.33333333333333,15.439397182744102 62,16.97069151569022 62.666666666666664,17.498974777002502 63.33333333333333,18.657138423189693 64,20.792860097227134 64.66666666666666,15.773638411897323 65.33333333333333,17.65043655367127 66,17.88489708861279 66.66666666666666,17.574026929535506 67.33333333333333,20.054768844661155 68,20.45071623315451 68.66666666666666,17.015443702709703 69.33333333333333,20.271421011883405 70,19.358974831356775 70.66666666666666,19.06376992893904 71.33333333333333,20.070240655763996 72,23.196332307997878 72.66666666666666,19.871090692134658 73.33333333333333,20.631486229054104 74,18.132856092927213 74.66666666666666,19.750507042640436 75.33333333333333,16.46600625634558 76,17.488198856514614 76.66666666666666,15.876191765558417 77.33333333333333,18.555402125262646 78,18.587377067630612 78.66666666666666,13.6004203350966 79.33333333333333,16.301595236343644 80,18.784495353694766 80.66666666666666,16.723466475181468 81.33333333333333,23.163213629487274 82,23.701098169813335 82.66666666666666,19.089001810163282 83.33333333333333,18.544248466850192 84,13.423073562702541 84.66666666666666,16.631703173353927 85.33333333333333,14.46019243327936 86,17.155197935901 86.66666666666666,18.134798623177744 87.33333333333333,19.21230019363061 88,21.303497546126465 88.66666666666666,26.796276451108653 89.33333333333333,20.747134910422133 90,23.54118247038393 90.66666666666666,28.789490446444887 91.33333333333333,25.51114224007098 92,22.455046847724375 92.66666666666666,22.866273621279802 93.33333333333333,25.723311385226793 94,29.02761794818042 94.66666666666666,21.51360430230494 95.33333333333333,24.193002990808964 96,16.92923432079752 96.66666666666666,40.73735372369342 97.33333333333333,37.235362280094634 98,16.896807001981827 98.66666666666666,27.69782118444877 99.33333333333333,29.500638635691274 100,24.75198233732337" stroke="#00A68C" stroke-linecap="round" stroke-width="1.4" fill="none" vector-effect="non-scaling-stroke"></polyline></svg>