<svg xmlns="http://www.w3.org/2000/svg" version="1.1" viewBox="0 0 100 100" preserveAspectRatio="none" class="css-1aadux1"><polyline points=" 0,57.54363474879302 0.6666666666666666,57.911874721944216 1.3333333333333333,56.386371820164946 2,60.06751544562989 2.6666666666666665,57.052199586446925 3.333333333333333,56.077359782141826 4,56.51052741490601 4.666666666666666,54.50588635581111 5.333333333333333,52.18761325052207 6,54.919608042706805 6.666666666666666,59.88587367242184 7.333333333333333,74.141509077541 8,70.65814956921076 8.666666666666666,78.87635255843225 9.333333333333332,100 10,92.44276990624246 10.666666666666666,94.12583583258997 11.333333333333332,89.54290296960593 12,90.81187368020538 12.666666666666666,93.91505787426217 13.333333333333332,98.72997725716041 14,92.9645045246209 14.666666666666666,82.21967894063907 15.333333333333332,82.61972334758234 16,77.0442383855651 16.666666666666664,71.86205761903237 17.333333333333332,78.82940981220511 18,76.61672574485006 18.666666666666664,76.98299565692064 19.333333333333332,84.74362752810381 20,82.76007455819084 20.666666666666664,86.36082750893425 21.333333333333332,82.87832482305984 22,79.04400043979797 22.666666666666664,77.4454144386005 23.333333333333332,75.7413301754824 24,76.0725964757952 24.666666666666664,73.46346709844582 25.333333333333332,75.71201581405555 26,78.50426555500533 26.666666666666664,75.17568912720888 27.333333333333332,76.83623553609897 28,68.51705929484987 28.666666666666664,71.85580190445765 29.333333333333332,73.91908903644267 30,69.66672219478087 30.666666666666664,69.06928800519623 31.333333333333332,69.86682744345224 32,69.82209143646045 32.666666666666664,71.14844182730663 33.33333333333333,69.69079855525555 34,70.92949474573255 34.666666666666664,68.0812508466019 35.33333333333333,68.53843851281434 36,68.20059102316063 36.666666666666664,67.25693884629348 37.33333333333333,62.883615377425635 38,60.44926165207505 38.666666666666664,59.20936395313968 39.33333333333333,63.48902312961271 40,65.51437253468762 40.666666666666664,63.76367193919155 41.33333333333333,65.84611833287545 42,67.15244287124722 42.666666666666664,67.93056838951753 43.33333333333333,69.15323702336167 44,69.23366848434924 44.666666666666664,68.3947480984961 45.33333333333333,68.64420450746364 46,66.6487864910674 46.666666666666664,67.34152405557649 47.33333333333333,66.51634224870779 48,66.48080162138778 48.666666666666664,66.43256814385231 49.33333333333333,72.47900065087818 50,74.26800354131836 50.666666666666664,69.62028971159046 51.33333333333333,70.5379947955519 52,70.22330351229408 52.666666666666664,68.95830724947444 53.33333333333333,69.91100841417955 54,69.55791321763745 54.666666666666664,70.49148053033575 55.33333333333333,67.69427574551847 56,66.319116228379 56.666666666666664,66.515990213262 57.33333333333333,66.10973080020273 58,64.42389002671324 58.666666666666664,63.0808825066972 59.33333333333333,64.64831447725712 60,67.65668034712445 60.666666666666664,70.20512185965106 61.33333333333333,68.74859228789613 62,68.5601230299426 62.666666666666664,68.34348690572145 63.33333333333333,70.5457626746539 64,70.77607234173958 64.66666666666666,71.84635201719583 65.33333333333333,70.42301037825172 66,69.5816548615565 66.66666666666666,69.49088663840095 67.33333333333333,68.53528867722744 68,70.00656364846469 68.66666666666666,70.59644465262883 69.33333333333333,70.45048918191402 70,68.44064320945073 70.66666666666666,69.96139670810655 71.33333333333333,68.48538745288994 72,68.5188230321383 72.66666666666666,68.9061482436903 73.33333333333333,67.21724633056046 74,66.63243098758498 74.66666666666666,69.9265241475414 75.33333333333333,70.36297477028299 76,71.01418815455702 76.66666666666666,74.3706583137826 77.33333333333333,76.96713304816454 78,76.16481769910068 78.66666666666666,74.83612023436902 79.33333333333333,74.86149195124932 80,75.26846168157375 80.66666666666666,75.6426578283722 81.33333333333333,74.95288130409907 82,80.2408449627813 82.66666666666666,79.57177330095853 83.33333333333333,83.68245268899712 84,86.26047595855268 84.66666666666666,81.74619180382409 85.33333333333333,78.41171771727011 86,77.24767624166535 86.66666666666666,80.24348509148089 87.33333333333333,71.645689235834 88,68.42832360535154 88.66666666666666,68.22857918706828 89.33333333333333,67.85070322113123 90,67.92696423154317 90.66666666666666,68.03456742453206 91.33333333333333,72.89916401541919 92,70.08932081639762 92.66666666666666,27.111705113078173 93.33333333333333,8.939812481009568 94,0 94.66666666666666,8.149735397935004 95.33333333333333,3.6279000577314235 96,4.851891958858957 96.66666666666666,6.416196812307987 97.33333333333333,7.223396356407747 98,15.616250313513433 98.66666666666666,15.108902313549606 99.33333333333333,26.986464986819513 100,26.65262706654829" stroke="#00A68C" stroke-linecap="round" stroke-width="1.4" fill="none" vector-effect="non-scaling-stroke"></polyline></svg>